<?xml version="1.0" encoding="utf-8" standalone="no"?>
<!DOCTYPE svg PUBLIC "-//W3C//DTD SVG 1.1//EN"
  "http://www.w3.org/Graphics/SVG/1.1/DTD/svg11.dtd">
<!-- Created with matplotlib (https://matplotlib.org/) -->
<svg height="262.19625pt" version="1.1" viewBox="0 0 394.160937 262.19625" width="394.160937pt" xmlns="http://www.w3.org/2000/svg" xmlns:xlink="http://www.w3.org/1999/xlink">
 <defs>
  <style type="text/css">
*{stroke-linecap:butt;stroke-linejoin:round;}
  </style>
 </defs>
 <g id="figure_1">
  <g id="patch_1">
   <path d="M 0 262.19625 
L 394.160937 262.19625 
L 394.160937 0 
L 0 0 
z
" style="fill:none;"/>
  </g>
  <g id="axes_1">
   <g id="patch_2">
    <path d="M 52.160938 224.64 
L 386.960938 224.64 
L 386.960938 7.2 
L 52.160938 7.2 
z
" style="fill:#ffffff;"/>
   </g>
   <g id="PathCollection_1">
    <defs>
     <path d="M 0 2.236068 
C 0.593012 2.236068 1.161816 2.000462 1.581139 1.581139 
C 2.000462 1.161816 2.236068 0.593012 2.236068 0 
C 2.236068 -0.593012 2.000462 -1.161816 1.581139 -1.581139 
C 1.161816 -2.000462 0.593012 -2.236068 0 -2.236068 
C -0.593012 -2.236068 -1.161816 -2.000462 -1.581139 -1.581139 
C -2.000462 -1.161816 -2.236068 -0.593012 -2.236068 0 
C -2.236068 0.593012 -2.000462 1.161816 -1.581139 1.581139 
C -1.161816 2.000462 -0.593012 2.236068 0 2.236068 
z
" id="mfac4979f06" style="stroke:#1f77b4;"/>
    </defs>
    <g clip-path="url(#pe94073385d)">
     <use style="fill:#1f77b4;stroke:#1f77b4;" x="127.585145" xlink:href="#mfac4979f06" y="204.158981"/>
     <use style="fill:#1f77b4;stroke:#1f77b4;" x="339.51281" xlink:href="#mfac4979f06" y="95.688539"/>
     <use style="fill:#1f77b4;stroke:#1f77b4;" x="198.760573" xlink:href="#mfac4979f06" y="127.10125"/>
     <use style="fill:#1f77b4;stroke:#1f77b4;" x="305.740859" xlink:href="#mfac4979f06" y="65.338211"/>
     <use style="fill:#1f77b4;stroke:#1f77b4;" x="319.631793" xlink:href="#mfac4979f06" y="69.039367"/>
     <use style="fill:#1f77b4;stroke:#1f77b4;" x="317.924357" xlink:href="#mfac4979f06" y="123.369802"/>
     <use style="fill:#1f77b4;stroke:#1f77b4;" x="153.443375" xlink:href="#mfac4979f06" y="187.750154"/>
     <use style="fill:#1f77b4;stroke:#1f77b4;" x="303.249163" xlink:href="#mfac4979f06" y="66.320871"/>
     <use style="fill:#1f77b4;stroke:#1f77b4;" x="187.935742" xlink:href="#mfac4979f06" y="116.876744"/>
     <use style="fill:#1f77b4;stroke:#1f77b4;" x="120.808651" xlink:href="#mfac4979f06" y="180.275762"/>
     <use style="fill:#1f77b4;stroke:#1f77b4;" x="329.527217" xlink:href="#mfac4979f06" y="75.352488"/>
     <use style="fill:#1f77b4;stroke:#1f77b4;" x="273.835666" xlink:href="#mfac4979f06" y="57.892386"/>
     <use style="fill:#1f77b4;stroke:#1f77b4;" x="316.319164" xlink:href="#mfac4979f06" y="112.342112"/>
     <use style="fill:#1f77b4;stroke:#1f77b4;" x="275.347295" xlink:href="#mfac4979f06" y="23.001018"/>
     <use style="fill:#1f77b4;stroke:#1f77b4;" x="329.377948" xlink:href="#mfac4979f06" y="67.824262"/>
     <use style="fill:#1f77b4;stroke:#1f77b4;" x="160.406255" xlink:href="#mfac4979f06" y="194.556931"/>
     <use style="fill:#1f77b4;stroke:#1f77b4;" x="196.129819" xlink:href="#mfac4979f06" y="177.652039"/>
     <use style="fill:#1f77b4;stroke:#1f77b4;" x="324.84987" xlink:href="#mfac4979f06" y="79.48847"/>
     <use style="fill:#1f77b4;stroke:#1f77b4;" x="185.620764" xlink:href="#mfac4979f06" y="159.498156"/>
     <use style="fill:#1f77b4;stroke:#1f77b4;" x="269.199599" xlink:href="#mfac4979f06" y="62.827264"/>
     <use style="fill:#1f77b4;stroke:#1f77b4;" x="340.130189" xlink:href="#mfac4979f06" y="82.383312"/>
     <use style="fill:#1f77b4;stroke:#1f77b4;" x="213.165545" xlink:href="#mfac4979f06" y="140.40636"/>
     <use style="fill:#1f77b4;stroke:#1f77b4;" x="212.046378" xlink:href="#mfac4979f06" y="161.610678"/>
     <use style="fill:#1f77b4;stroke:#1f77b4;" x="331.451625" xlink:href="#mfac4979f06" y="54.606324"/>
     <use style="fill:#1f77b4;stroke:#1f77b4;" x="343.192085" xlink:href="#mfac4979f06" y="65.946257"/>
     <use style="fill:#1f77b4;stroke:#1f77b4;" x="226.103669" xlink:href="#mfac4979f06" y="185.945885"/>
     <use style="fill:#1f77b4;stroke:#1f77b4;" x="124.320334" xlink:href="#mfac4979f06" y="196.38758"/>
     <use style="fill:#1f77b4;stroke:#1f77b4;" x="316.155174" xlink:href="#mfac4979f06" y="35.472156"/>
     <use style="fill:#1f77b4;stroke:#1f77b4;" x="321.089482" xlink:href="#mfac4979f06" y="59.616673"/>
     <use style="fill:#1f77b4;stroke:#1f77b4;" x="146.641451" xlink:href="#mfac4979f06" y="195.473673"/>
     <use style="fill:#1f77b4;stroke:#1f77b4;" x="178.742949" xlink:href="#mfac4979f06" y="214.756364"/>
     <use style="fill:#1f77b4;stroke:#1f77b4;" x="298.955395" xlink:href="#mfac4979f06" y="65.728777"/>
     <use style="fill:#1f77b4;stroke:#1f77b4;" x="314.824417" xlink:href="#mfac4979f06" y="46.660885"/>
     <use style="fill:#1f77b4;stroke:#1f77b4;" x="127.937155" xlink:href="#mfac4979f06" y="176.103429"/>
     <use style="fill:#1f77b4;stroke:#1f77b4;" x="176.209055" xlink:href="#mfac4979f06" y="167.432788"/>
     <use style="fill:#1f77b4;stroke:#1f77b4;" x="155.963898" xlink:href="#mfac4979f06" y="148.76057"/>
     <use style="fill:#1f77b4;stroke:#1f77b4;" x="347.668405" xlink:href="#mfac4979f06" y="65.551443"/>
     <use style="fill:#1f77b4;stroke:#1f77b4;" x="321.05047" xlink:href="#mfac4979f06" y="83.729827"/>
     <use style="fill:#1f77b4;stroke:#1f77b4;" x="294.494475" xlink:href="#mfac4979f06" y="17.083636"/>
     <use style="fill:#1f77b4;stroke:#1f77b4;" x="266.619034" xlink:href="#mfac4979f06" y="71.403733"/>
     <use style="fill:#1f77b4;stroke:#1f77b4;" x="155.392135" xlink:href="#mfac4979f06" y="171.272016"/>
     <use style="fill:#1f77b4;stroke:#1f77b4;" x="332.717284" xlink:href="#mfac4979f06" y="66.597226"/>
     <use style="fill:#1f77b4;stroke:#1f77b4;" x="333.435857" xlink:href="#mfac4979f06" y="62.585207"/>
     <use style="fill:#1f77b4;stroke:#1f77b4;" x="262.238734" xlink:href="#mfac4979f06" y="94.617167"/>
     <use style="fill:#1f77b4;stroke:#1f77b4;" x="231.558771" xlink:href="#mfac4979f06" y="117.044007"/>
     <use style="fill:#1f77b4;stroke:#1f77b4;" x="166.897085" xlink:href="#mfac4979f06" y="183.314772"/>
     <use style="fill:#1f77b4;stroke:#1f77b4;" x="299.879077" xlink:href="#mfac4979f06" y="80.462592"/>
     <use style="fill:#1f77b4;stroke:#1f77b4;" x="299.230041" xlink:href="#mfac4979f06" y="95.625987"/>
     <use style="fill:#1f77b4;stroke:#1f77b4;" x="303.520273" xlink:href="#mfac4979f06" y="42.297291"/>
     <use style="fill:#1f77b4;stroke:#1f77b4;" x="67.379119" xlink:href="#mfac4979f06" y="184.064084"/>
     <use style="fill:#1f77b4;stroke:#1f77b4;" x="345.146951" xlink:href="#mfac4979f06" y="49.575776"/>
     <use style="fill:#1f77b4;stroke:#1f77b4;" x="206.534752" xlink:href="#mfac4979f06" y="161.05955"/>
     <use style="fill:#1f77b4;stroke:#1f77b4;" x="233.017646" xlink:href="#mfac4979f06" y="184.234234"/>
     <use style="fill:#1f77b4;stroke:#1f77b4;" x="292.942222" xlink:href="#mfac4979f06" y="92.90981"/>
     <use style="fill:#1f77b4;stroke:#1f77b4;" x="315.228626" xlink:href="#mfac4979f06" y="67.250233"/>
     <use style="fill:#1f77b4;stroke:#1f77b4;" x="281.913233" xlink:href="#mfac4979f06" y="59.845551"/>
     <use style="fill:#1f77b4;stroke:#1f77b4;" x="324.038237" xlink:href="#mfac4979f06" y="73.478613"/>
     <use style="fill:#1f77b4;stroke:#1f77b4;" x="179.324025" xlink:href="#mfac4979f06" y="190.934096"/>
     <use style="fill:#1f77b4;stroke:#1f77b4;" x="227.165699" xlink:href="#mfac4979f06" y="188.511303"/>
     <use style="fill:#1f77b4;stroke:#1f77b4;" x="161.230512" xlink:href="#mfac4979f06" y="190.226906"/>
     <use style="fill:#1f77b4;stroke:#1f77b4;" x="310.402322" xlink:href="#mfac4979f06" y="89.024711"/>
     <use style="fill:#1f77b4;stroke:#1f77b4;" x="336.774191" xlink:href="#mfac4979f06" y="54.567953"/>
     <use style="fill:#1f77b4;stroke:#1f77b4;" x="184.76516" xlink:href="#mfac4979f06" y="167.113951"/>
     <use style="fill:#1f77b4;stroke:#1f77b4;" x="327.657161" xlink:href="#mfac4979f06" y="130.627289"/>
     <use style="fill:#1f77b4;stroke:#1f77b4;" x="194.526817" xlink:href="#mfac4979f06" y="124.079154"/>
     <use style="fill:#1f77b4;stroke:#1f77b4;" x="253.59756" xlink:href="#mfac4979f06" y="61.508568"/>
     <use style="fill:#1f77b4;stroke:#1f77b4;" x="233.840407" xlink:href="#mfac4979f06" y="107.037485"/>
     <use style="fill:#1f77b4;stroke:#1f77b4;" x="168.788394" xlink:href="#mfac4979f06" y="193.420464"/>
     <use style="fill:#1f77b4;stroke:#1f77b4;" x="247.671183" xlink:href="#mfac4979f06" y="45.263576"/>
     <use style="fill:#1f77b4;stroke:#1f77b4;" x="152.084234" xlink:href="#mfac4979f06" y="122.736434"/>
     <use style="fill:#1f77b4;stroke:#1f77b4;" x="125.873852" xlink:href="#mfac4979f06" y="148.780962"/>
     <use style="fill:#1f77b4;stroke:#1f77b4;" x="363.27912" xlink:href="#mfac4979f06" y="20.842767"/>
     <use style="fill:#1f77b4;stroke:#1f77b4;" x="371.742756" xlink:href="#mfac4979f06" y="62.420688"/>
     <use style="fill:#1f77b4;stroke:#1f77b4;" x="200.454832" xlink:href="#mfac4979f06" y="130.245965"/>
     <use style="fill:#1f77b4;stroke:#1f77b4;" x="307.155155" xlink:href="#mfac4979f06" y="46.31675"/>
     <use style="fill:#1f77b4;stroke:#1f77b4;" x="174.691421" xlink:href="#mfac4979f06" y="162.914742"/>
     <use style="fill:#1f77b4;stroke:#1f77b4;" x="293.985434" xlink:href="#mfac4979f06" y="117.464239"/>
     <use style="fill:#1f77b4;stroke:#1f77b4;" x="192.41972" xlink:href="#mfac4979f06" y="158.895992"/>
     <use style="fill:#1f77b4;stroke:#1f77b4;" x="278.595319" xlink:href="#mfac4979f06" y="82.039501"/>
     <use style="fill:#1f77b4;stroke:#1f77b4;" x="300.388885" xlink:href="#mfac4979f06" y="74.902728"/>
     <use style="fill:#1f77b4;stroke:#1f77b4;" x="170.249122" xlink:href="#mfac4979f06" y="155.243123"/>
     <use style="fill:#1f77b4;stroke:#1f77b4;" x="162.82423" xlink:href="#mfac4979f06" y="148.720104"/>
     <use style="fill:#1f77b4;stroke:#1f77b4;" x="321.981373" xlink:href="#mfac4979f06" y="70.997189"/>
     <use style="fill:#1f77b4;stroke:#1f77b4;" x="277.189686" xlink:href="#mfac4979f06" y="50.513325"/>
     <use style="fill:#1f77b4;stroke:#1f77b4;" x="150.258511" xlink:href="#mfac4979f06" y="145.692673"/>
     <use style="fill:#1f77b4;stroke:#1f77b4;" x="313.750514" xlink:href="#mfac4979f06" y="33.097261"/>
     <use style="fill:#1f77b4;stroke:#1f77b4;" x="326.629584" xlink:href="#mfac4979f06" y="34.116147"/>
     <use style="fill:#1f77b4;stroke:#1f77b4;" x="301.557117" xlink:href="#mfac4979f06" y="96.572235"/>
     <use style="fill:#1f77b4;stroke:#1f77b4;" x="159.016232" xlink:href="#mfac4979f06" y="187.687732"/>
     <use style="fill:#1f77b4;stroke:#1f77b4;" x="268.507268" xlink:href="#mfac4979f06" y="49.437964"/>
     <use style="fill:#1f77b4;stroke:#1f77b4;" x="151.06981" xlink:href="#mfac4979f06" y="129.217103"/>
     <use style="fill:#1f77b4;stroke:#1f77b4;" x="133.003107" xlink:href="#mfac4979f06" y="187.949912"/>
     <use style="fill:#1f77b4;stroke:#1f77b4;" x="149.797203" xlink:href="#mfac4979f06" y="177.444352"/>
     <use style="fill:#1f77b4;stroke:#1f77b4;" x="284.399495" xlink:href="#mfac4979f06" y="66.871882"/>
     <use style="fill:#1f77b4;stroke:#1f77b4;" x="198.581187" xlink:href="#mfac4979f06" y="171.363432"/>
     <use style="fill:#1f77b4;stroke:#1f77b4;" x="191.129332" xlink:href="#mfac4979f06" y="191.692484"/>
     <use style="fill:#1f77b4;stroke:#1f77b4;" x="168.860695" xlink:href="#mfac4979f06" y="167.045198"/>
     <use style="fill:#1f77b4;stroke:#1f77b4;" x="310.107942" xlink:href="#mfac4979f06" y="55.635209"/>
     <use style="fill:#1f77b4;stroke:#1f77b4;" x="334.279035" xlink:href="#mfac4979f06" y="43.543669"/>
     <use style="fill:#1f77b4;stroke:#1f77b4;" x="183.096811" xlink:href="#mfac4979f06" y="171.013782"/>
    </g>
   </g>
   <g id="matplotlib.axis_1">
    <g id="xtick_1">
     <g id="line2d_1">
      <defs>
       <path d="M 0 0 
L 0 3.5 
" id="m91ed960dd8" style="stroke:#000000;stroke-width:0.8;"/>
      </defs>
      <g>
       <use style="stroke:#000000;stroke-width:0.8;" x="110.10758" xlink:href="#m91ed960dd8" y="224.64"/>
      </g>
     </g>
     <g id="text_1">
      <!-- −2 -->
      <defs>
       <path d="M 10.59375 35.5 
L 73.1875 35.5 
L 73.1875 27.203125 
L 10.59375 27.203125 
z
" id="DejaVuSans-8722"/>
       <path d="M 19.1875 8.296875 
L 53.609375 8.296875 
L 53.609375 0 
L 7.328125 0 
L 7.328125 8.296875 
Q 12.9375 14.109375 22.625 23.890625 
Q 32.328125 33.6875 34.8125 36.53125 
Q 39.546875 41.84375 41.421875 45.53125 
Q 43.3125 49.21875 43.3125 52.78125 
Q 43.3125 58.59375 39.234375 62.25 
Q 35.15625 65.921875 28.609375 65.921875 
Q 23.96875 65.921875 18.8125 64.3125 
Q 13.671875 62.703125 7.8125 59.421875 
L 7.8125 69.390625 
Q 13.765625 71.78125 18.9375 73 
Q 24.125 74.21875 28.421875 74.21875 
Q 39.75 74.21875 46.484375 68.546875 
Q 53.21875 62.890625 53.21875 53.421875 
Q 53.21875 48.921875 51.53125 44.890625 
Q 49.859375 40.875 45.40625 35.40625 
Q 44.1875 33.984375 37.640625 27.21875 
Q 31.109375 20.453125 19.1875 8.296875 
z
" id="DejaVuSans-50"/>
      </defs>
      <g transform="translate(102.736486 239.238437)scale(0.1 -0.1)">
       <use xlink:href="#DejaVuSans-8722"/>
       <use x="83.789062" xlink:href="#DejaVuSans-50"/>
      </g>
     </g>
    </g>
    <g id="xtick_2">
     <g id="line2d_2">
      <g>
       <use style="stroke:#000000;stroke-width:0.8;" x="173.71259" xlink:href="#m91ed960dd8" y="224.64"/>
      </g>
     </g>
     <g id="text_2">
      <!-- −1 -->
      <defs>
       <path d="M 12.40625 8.296875 
L 28.515625 8.296875 
L 28.515625 63.921875 
L 10.984375 60.40625 
L 10.984375 69.390625 
L 28.421875 72.90625 
L 38.28125 72.90625 
L 38.28125 8.296875 
L 54.390625 8.296875 
L 54.390625 0 
L 12.40625 0 
z
" id="DejaVuSans-49"/>
      </defs>
      <g transform="translate(166.341496 239.238437)scale(0.1 -0.1)">
       <use xlink:href="#DejaVuSans-8722"/>
       <use x="83.789062" xlink:href="#DejaVuSans-49"/>
      </g>
     </g>
    </g>
    <g id="xtick_3">
     <g id="line2d_3">
      <g>
       <use style="stroke:#000000;stroke-width:0.8;" x="237.317599" xlink:href="#m91ed960dd8" y="224.64"/>
      </g>
     </g>
     <g id="text_3">
      <!-- 0 -->
      <defs>
       <path d="M 31.78125 66.40625 
Q 24.171875 66.40625 20.328125 58.90625 
Q 16.5 51.421875 16.5 36.375 
Q 16.5 21.390625 20.328125 13.890625 
Q 24.171875 6.390625 31.78125 6.390625 
Q 39.453125 6.390625 43.28125 13.890625 
Q 47.125 21.390625 47.125 36.375 
Q 47.125 51.421875 43.28125 58.90625 
Q 39.453125 66.40625 31.78125 66.40625 
z
M 31.78125 74.21875 
Q 44.046875 74.21875 50.515625 64.515625 
Q 56.984375 54.828125 56.984375 36.375 
Q 56.984375 17.96875 50.515625 8.265625 
Q 44.046875 -1.421875 31.78125 -1.421875 
Q 19.53125 -1.421875 13.0625 8.265625 
Q 6.59375 17.96875 6.59375 36.375 
Q 6.59375 54.828125 13.0625 64.515625 
Q 19.53125 74.21875 31.78125 74.21875 
z
" id="DejaVuSans-48"/>
      </defs>
      <g transform="translate(234.136349 239.238437)scale(0.1 -0.1)">
       <use xlink:href="#DejaVuSans-48"/>
      </g>
     </g>
    </g>
    <g id="xtick_4">
     <g id="line2d_4">
      <g>
       <use style="stroke:#000000;stroke-width:0.8;" x="300.922609" xlink:href="#m91ed960dd8" y="224.64"/>
      </g>
     </g>
     <g id="text_4">
      <!-- 1 -->
      <g transform="translate(297.741359 239.238437)scale(0.1 -0.1)">
       <use xlink:href="#DejaVuSans-49"/>
      </g>
     </g>
    </g>
    <g id="xtick_5">
     <g id="line2d_5">
      <g>
       <use style="stroke:#000000;stroke-width:0.8;" x="364.527618" xlink:href="#m91ed960dd8" y="224.64"/>
      </g>
     </g>
     <g id="text_5">
      <!-- 2 -->
      <g transform="translate(361.346368 239.238437)scale(0.1 -0.1)">
       <use xlink:href="#DejaVuSans-50"/>
      </g>
     </g>
    </g>
    <g id="text_6">
     <!-- x -->
     <defs>
      <path d="M 54.890625 54.6875 
L 35.109375 28.078125 
L 55.90625 0 
L 45.3125 0 
L 29.390625 21.484375 
L 13.484375 0 
L 2.875 0 
L 24.125 28.609375 
L 4.6875 54.6875 
L 15.28125 54.6875 
L 29.78125 35.203125 
L 44.28125 54.6875 
z
" id="DejaVuSans-120"/>
     </defs>
     <g transform="translate(216.601563 252.916562)scale(0.1 -0.1)">
      <use xlink:href="#DejaVuSans-120"/>
     </g>
    </g>
   </g>
   <g id="matplotlib.axis_2">
    <g id="ytick_1">
     <g id="line2d_6">
      <defs>
       <path d="M 0 0 
L -3.5 0 
" id="m920163fe9d" style="stroke:#000000;stroke-width:0.8;"/>
      </defs>
      <g>
       <use style="stroke:#000000;stroke-width:0.8;" x="52.160938" xlink:href="#m920163fe9d" y="220.868322"/>
      </g>
     </g>
     <g id="text_7">
      <!-- −2.0 -->
      <defs>
       <path d="M 10.6875 12.40625 
L 21 12.40625 
L 21 0 
L 10.6875 0 
z
" id="DejaVuSans-46"/>
      </defs>
      <g transform="translate(20.878125 224.667541)scale(0.1 -0.1)">
       <use xlink:href="#DejaVuSans-8722"/>
       <use x="83.789062" xlink:href="#DejaVuSans-50"/>
       <use x="147.412109" xlink:href="#DejaVuSans-46"/>
       <use x="179.199219" xlink:href="#DejaVuSans-48"/>
      </g>
     </g>
    </g>
    <g id="ytick_2">
     <g id="line2d_7">
      <g>
       <use style="stroke:#000000;stroke-width:0.8;" x="52.160938" xlink:href="#m920163fe9d" y="195.714941"/>
      </g>
     </g>
     <g id="text_8">
      <!-- −1.5 -->
      <defs>
       <path d="M 10.796875 72.90625 
L 49.515625 72.90625 
L 49.515625 64.59375 
L 19.828125 64.59375 
L 19.828125 46.734375 
Q 21.96875 47.46875 24.109375 47.828125 
Q 26.265625 48.1875 28.421875 48.1875 
Q 40.625 48.1875 47.75 41.5 
Q 54.890625 34.8125 54.890625 23.390625 
Q 54.890625 11.625 47.5625 5.09375 
Q 40.234375 -1.421875 26.90625 -1.421875 
Q 22.3125 -1.421875 17.546875 -0.640625 
Q 12.796875 0.140625 7.71875 1.703125 
L 7.71875 11.625 
Q 12.109375 9.234375 16.796875 8.0625 
Q 21.484375 6.890625 26.703125 6.890625 
Q 35.15625 6.890625 40.078125 11.328125 
Q 45.015625 15.765625 45.015625 23.390625 
Q 45.015625 31 40.078125 35.4375 
Q 35.15625 39.890625 26.703125 39.890625 
Q 22.75 39.890625 18.8125 39.015625 
Q 14.890625 38.140625 10.796875 36.28125 
z
" id="DejaVuSans-53"/>
      </defs>
      <g transform="translate(20.878125 199.51416)scale(0.1 -0.1)">
       <use xlink:href="#DejaVuSans-8722"/>
       <use x="83.789062" xlink:href="#DejaVuSans-49"/>
       <use x="147.412109" xlink:href="#DejaVuSans-46"/>
       <use x="179.199219" xlink:href="#DejaVuSans-53"/>
      </g>
     </g>
    </g>
    <g id="ytick_3">
     <g id="line2d_8">
      <g>
       <use style="stroke:#000000;stroke-width:0.8;" x="52.160938" xlink:href="#m920163fe9d" y="170.561559"/>
      </g>
     </g>
     <g id="text_9">
      <!-- −1.0 -->
      <g transform="translate(20.878125 174.360778)scale(0.1 -0.1)">
       <use xlink:href="#DejaVuSans-8722"/>
       <use x="83.789062" xlink:href="#DejaVuSans-49"/>
       <use x="147.412109" xlink:href="#DejaVuSans-46"/>
       <use x="179.199219" xlink:href="#DejaVuSans-48"/>
      </g>
     </g>
    </g>
    <g id="ytick_4">
     <g id="line2d_9">
      <g>
       <use style="stroke:#000000;stroke-width:0.8;" x="52.160938" xlink:href="#m920163fe9d" y="145.408178"/>
      </g>
     </g>
     <g id="text_10">
      <!-- −0.5 -->
      <g transform="translate(20.878125 149.207397)scale(0.1 -0.1)">
       <use xlink:href="#DejaVuSans-8722"/>
       <use x="83.789062" xlink:href="#DejaVuSans-48"/>
       <use x="147.412109" xlink:href="#DejaVuSans-46"/>
       <use x="179.199219" xlink:href="#DejaVuSans-53"/>
      </g>
     </g>
    </g>
    <g id="ytick_5">
     <g id="line2d_10">
      <g>
       <use style="stroke:#000000;stroke-width:0.8;" x="52.160938" xlink:href="#m920163fe9d" y="120.254797"/>
      </g>
     </g>
     <g id="text_11">
      <!-- 0.0 -->
      <g transform="translate(29.257812 124.054015)scale(0.1 -0.1)">
       <use xlink:href="#DejaVuSans-48"/>
       <use x="63.623047" xlink:href="#DejaVuSans-46"/>
       <use x="95.410156" xlink:href="#DejaVuSans-48"/>
      </g>
     </g>
    </g>
    <g id="ytick_6">
     <g id="line2d_11">
      <g>
       <use style="stroke:#000000;stroke-width:0.8;" x="52.160938" xlink:href="#m920163fe9d" y="95.101415"/>
      </g>
     </g>
     <g id="text_12">
      <!-- 0.5 -->
      <g transform="translate(29.257812 98.900634)scale(0.1 -0.1)">
       <use xlink:href="#DejaVuSans-48"/>
       <use x="63.623047" xlink:href="#DejaVuSans-46"/>
       <use x="95.410156" xlink:href="#DejaVuSans-53"/>
      </g>
     </g>
    </g>
    <g id="ytick_7">
     <g id="line2d_12">
      <g>
       <use style="stroke:#000000;stroke-width:0.8;" x="52.160938" xlink:href="#m920163fe9d" y="69.948034"/>
      </g>
     </g>
     <g id="text_13">
      <!-- 1.0 -->
      <g transform="translate(29.257812 73.747253)scale(0.1 -0.1)">
       <use xlink:href="#DejaVuSans-49"/>
       <use x="63.623047" xlink:href="#DejaVuSans-46"/>
       <use x="95.410156" xlink:href="#DejaVuSans-48"/>
      </g>
     </g>
    </g>
    <g id="ytick_8">
     <g id="line2d_13">
      <g>
       <use style="stroke:#000000;stroke-width:0.8;" x="52.160938" xlink:href="#m920163fe9d" y="44.794653"/>
      </g>
     </g>
     <g id="text_14">
      <!-- 1.5 -->
      <g transform="translate(29.257812 48.593871)scale(0.1 -0.1)">
       <use xlink:href="#DejaVuSans-49"/>
       <use x="63.623047" xlink:href="#DejaVuSans-46"/>
       <use x="95.410156" xlink:href="#DejaVuSans-53"/>
      </g>
     </g>
    </g>
    <g id="ytick_9">
     <g id="line2d_14">
      <g>
       <use style="stroke:#000000;stroke-width:0.8;" x="52.160938" xlink:href="#m920163fe9d" y="19.641271"/>
      </g>
     </g>
     <g id="text_15">
      <!-- 2.0 -->
      <g transform="translate(29.257812 23.44049)scale(0.1 -0.1)">
       <use xlink:href="#DejaVuSans-50"/>
       <use x="63.623047" xlink:href="#DejaVuSans-46"/>
       <use x="95.410156" xlink:href="#DejaVuSans-48"/>
      </g>
     </g>
    </g>
    <g id="text_16">
     <!-- y -->
     <defs>
      <path d="M 32.171875 -5.078125 
Q 28.375 -14.84375 24.75 -17.8125 
Q 21.140625 -20.796875 15.09375 -20.796875 
L 7.90625 -20.796875 
L 7.90625 -13.28125 
L 13.1875 -13.28125 
Q 16.890625 -13.28125 18.9375 -11.515625 
Q 21 -9.765625 23.484375 -3.21875 
L 25.09375 0.875 
L 2.984375 54.6875 
L 12.5 54.6875 
L 29.59375 11.921875 
L 46.6875 54.6875 
L 56.203125 54.6875 
z
" id="DejaVuSans-121"/>
     </defs>
     <g transform="translate(14.798438 118.879375)rotate(-90)scale(0.1 -0.1)">
      <use xlink:href="#DejaVuSans-121"/>
     </g>
    </g>
   </g>
   <g id="patch_3">
    <path d="M 52.160938 224.64 
L 52.160938 7.2 
" style="fill:none;stroke:#000000;stroke-linecap:square;stroke-linejoin:miter;stroke-width:0.8;"/>
   </g>
   <g id="patch_4">
    <path d="M 386.960938 224.64 
L 386.960938 7.2 
" style="fill:none;stroke:#000000;stroke-linecap:square;stroke-linejoin:miter;stroke-width:0.8;"/>
   </g>
   <g id="patch_5">
    <path d="M 52.160938 224.64 
L 386.960938 224.64 
" style="fill:none;stroke:#000000;stroke-linecap:square;stroke-linejoin:miter;stroke-width:0.8;"/>
   </g>
   <g id="patch_6">
    <path d="M 52.160938 7.2 
L 386.960938 7.2 
" style="fill:none;stroke:#000000;stroke-linecap:square;stroke-linejoin:miter;stroke-width:0.8;"/>
   </g>
  </g>
 </g>
 <defs>
  <clipPath id="pe94073385d">
   <rect height="217.44" width="334.8" x="52.160938" y="7.2"/>
  </clipPath>
 </defs>
</svg>
